HIERARCHY
ROOT Hips
{
	OFFSET 0.00 0.00 0.00
	CHANNELS 6 Xposition Yposition Zposition Xrotation Yrotation Zrotation
	JOINT Spine
	{
		OFFSET 0.00000 1.70439 2.55658
		CHANNELS 3 Xrotation Yrotation Zrotation
		JOINT Spine1
		{
			OFFSET 0.00000 0.59193 3.35699
			CHANNELS 3 Xrotation Yrotation Zrotation
			JOINT Spine2
			{
				OFFSET 0.00000 0.29710 3.39581
				CHANNELS 3 Xrotation Yrotation Zrotation
				JOINT Spine3
				{
					OFFSET 0.00000 0.00000 3.40878
					CHANNELS 3 Xrotation Yrotation Zrotation
					JOINT Neck
					{
						OFFSET 0.00000 -1.27828 8.94804
						CHANNELS 3 Xrotation Yrotation Zrotation
						JOINT Head
						{
							OFFSET 0.00000 -0.81390 4.61586
							CHANNELS 3 Xrotation Yrotation Zrotation
							End Site
							{
								OFFSET 0.00000 0.00001 5.51796
							}
						}
					}
					JOINT RightShoulder
					{
						OFFSET -1.18875 -1.98124 6.41925
						CHANNELS 3 Xrotation Yrotation Zrotation
						JOINT RightArm
						{
							OFFSET -5.90412 0.00000 0.00000
							CHANNELS 3 Xrotation Yrotation Zrotation
							JOINT RightForeArm
							{
								OFFSET -11.94674 0.00000 0.00000
								CHANNELS 3 Xrotation Yrotation Zrotation
								JOINT RightHand
								{
									OFFSET -10.17720 0.00000 0.00000
									CHANNELS 3 Xrotation Yrotation Zrotation
									JOINT RightHandEnd
									{
										OFFSET -2.84518 0.00000 0.00000
										CHANNELS 3 Xrotation Yrotation Zrotation
										End Site
										{
											OFFSET -2.84518 0.00000 0.00000
										}
									}
									JOINT RightHandThumb1
									{
										OFFSET -1.13807 -1.89679 -0.75871
										CHANNELS 3 Yrotation Xrotation Zrotation
										End Site
										{
											OFFSET -2.74823 -0.73639 0.00000
										}
									}
								}
							}
						}
					}
					JOINT LeftShoulder
					{
						OFFSET 1.18875 -1.98124 6.41925
						CHANNELS 3 Xrotation Yrotation Zrotation
						JOINT LeftArm
						{
							OFFSET 5.90412 0.00000 0.00000
							CHANNELS 3 Xrotation Yrotation Zrotation
							JOINT LeftForeArm
							{
								OFFSET 11.94674 0.00000 0.00000
								CHANNELS 3 Xrotation Yrotation Zrotation
								JOINT LeftHand
								{
									OFFSET 10.17720 0.00000 0.00000
									CHANNELS 3 Xrotation Yrotation Zrotation
									JOINT LeftHandEnd
									{
										OFFSET 2.84518 0.00000 0.00000
										CHANNELS 3 Xrotation Yrotation Zrotation
										End Site
										{
											OFFSET 2.84518 0.00000 0.00000
										}
									}
									JOINT LeftHandThumb1
									{
										OFFSET 1.13807 -1.89679 -0.75871
										CHANNELS 3 Yrotation Xrotation Zrotation
										End Site
										{
											OFFSET 2.74823 -0.73639 0.00000
										}
									}
								}
							}
						}
					}
				}
			}
		}
	}
	JOINT RightUpLeg
	{
		OFFSET -3.52662 0.00000 -1.03025
		CHANNELS 3 Xrotation Yrotation Zrotation
		JOINT RightLeg
		{
			OFFSET 0.00001 0.00000 -17.80159
			CHANNELS 3 Xrotation Yrotation Zrotation
			JOINT RightFoot
			{
				OFFSET 0.00001 0.00000 -16.85992
				CHANNELS 3 Xrotation Yrotation Zrotation
				JOINT RightToeBase
				{
					OFFSET 0.00000 -5.42953 -1.97619
					CHANNELS 3 Xrotation Yrotation Zrotation
					End Site
					{
						OFFSET 0.00000 -2.85300 -0.00000
					}
				}
			}
		}
	}
	JOINT LeftUpLeg
	{
		OFFSET 3.52662 0.00000 -1.03025
		CHANNELS 3 Xrotation Yrotation Zrotation
		JOINT LeftLeg
		{
			OFFSET 0.00001 0.00000 -17.80159
			CHANNELS 3 Xrotation Yrotation Zrotation
			JOINT LeftFoot
			{
				OFFSET 0.00001 0.00000 -16.85992
				CHANNELS 3 Xrotation Yrotation Zrotation
				JOINT LeftToeBase
				{
					OFFSET 0.00000 -5.42953 -1.97619
					CHANNELS 3 Xrotation Yrotation Zrotation
					End Site
					{
						OFFSET 0.00000 -2.85300 -0.00000
					}
				}
			}
		}
	}
}
MOTION
Frames: 9
Frame Time: 0.008342
 21.0283 -19.6834 37.6647 -0.9455 -8.4567 33.5355 -3.4182 2.2357 -0.0781 -1.4664 -0.3431 -0.0238 1.3787 2.6452 3.3450 2.6064 1.5374 -1.4240 14.1161 18.2812 27.7153 -2.1308 7.3835 44.6255 10.1923 4.1526 6.2424 29.1345 -15.0175 70.6374 -0.0001 0.0001 122.8136 -14.7599 10.4485 -8.5396 -0.0000 0.0000 0.0000 -0.0000 -0.0000 -0.0000 4.3075 2.9269 -19.8207 49.0846 11.4722 -65.5277 -0.0001 -0.0001 -110.0348 -12.6819 -9.2797 -3.0265 0.0000 0.0000 -0.0000 0.0000 0.0000 -0.0000 -10.4906 15.1977 -8.8898 59.7838 0.0000 0.0000 -9.9005 -11.3711 -10.8145 -2.8527 0.0000 -0.0000 -2.1164 4.7172 1.0593 17.8454 0.0000 0.0000 -8.1054 5.1812 3.4623 -2.6765 0.0000 -0.0000
 21.1305 -19.8438 37.6852 -0.9542 -8.4718 33.5135 -3.3867 2.3784 -0.1075 -1.4471 -0.3510 -0.0363 1.3809 2.6151 3.2476 2.6067 1.5475 -1.4590 13.9698 18.2933 27.8278 -2.2930 7.3479 44.7077 10.2217 4.1922 6.2335 29.1599 -15.1132 70.6541 -0.0001 0.0001 122.7700 -14.7936 10.3746 -8.5422 0.0000 -0.0000 0.0000 -0.0000 0.0000 -0.0000 4.3002 2.8849 -19.8833 49.0875 11.5523 -65.5446 -0.0001 -0.0001 -109.9796 -12.9854 -9.1570 -3.2356 -0.0000 0.0000 -0.0000 -0.0000 -0.0000 0.0000 -11.0346 15.3189 -9.2980 58.8123 0.0000 0.0000 -10.7904 -10.3541 -12.0721 -3.5340 0.0000 -0.0000 -1.5399 4.7230 1.1434 17.3619 0.0000 0.0000 -8.1170 5.1413 3.4086 -2.6651 0.0000 -0.0000
 21.2286 -20.0043 37.7009 -0.9599 -8.4916 33.4861 -3.3471 2.5257 -0.1372 -1.4301 -0.3564 -0.0458 1.3893 2.5796 3.1658 2.6067 1.5565 -1.4866 13.8250 18.2957 27.9193 -2.4398 7.3136 44.7891 10.2519 4.2478 6.2102 29.1873 -15.2414 70.6881 -0.0001 0.0001 122.7430 -14.7702 10.3100 -8.5462 -0.0000 0.0000 0.0000 0.0000 -0.0000 -0.0000 4.3072 2.8235 -19.9473 49.0911 11.6714 -65.5730 -0.0001 -0.0001 -109.9333 -13.2929 -9.0301 -3.4483 -0.0000 -0.0000 -0.0000 -0.0000 0.0000 -0.0000 -11.5265 15.4107 -9.6538 57.6771 0.0000 0.0000 -11.5723 -9.4655 -13.1203 -4.0467 0.0000 -0.0000 -0.9886 4.7260 1.2484 16.9362 0.0000 0.0000 -8.1571 5.1167 3.3594 -2.6541 0.0000 -0.0000
 21.3225 -20.1648 37.7116 -0.9581 -8.5154 33.4515 -3.3052 2.6775 -0.1662 -1.4100 -0.3563 -0.0531 1.3968 2.5378 3.0989 2.6082 1.5629 -1.5051 13.6832 18.2901 27.9911 -2.5700 7.2815 44.8676 10.2828 4.3194 6.1731 29.2144 -15.3921 70.7400 -0.0001 0.0001 122.7317 -14.6969 10.2601 -8.5502 0.0000 -0.0000 -0.0000 0.0000 -0.0000 -0.0000 4.3279 2.7454 -20.0116 49.0950 11.8229 -65.6098 -0.0001 -0.0001 -109.8968 -13.5954 -8.9032 -3.6592 -0.0000 -0.0000 0.0000 0.0000 -0.0000 0.0000 -11.9749 15.4723 -9.9535 56.3911 0.0000 0.0000 -12.2840 -8.7095 -13.9593 -4.3954 0.0000 -0.0000 -0.4664 4.7288 1.3642 16.5622 0.0000 0.0000 -8.2289 5.1136 3.3224 -2.6528 0.0000 -0.0000
 21.4123 -20.3257 37.7175 -0.9528 -8.5407 33.4100 -3.2602 2.8294 -0.1952 -1.3868 -0.3505 -0.0572 1.4047 2.4905 3.0460 2.6105 1.5658 -1.5146 13.5474 18.2785 28.0439 -2.6843 7.2531 44.9413 10.3125 4.4019 6.1226 29.2414 -15.5512 70.8073 -0.0001 0.0001 122.7335 -14.5849 10.2274 -8.5540 0.0000 -0.0000 0.0000 -0.0000 0.0000 0.0000 4.3612 2.6573 -20.0768 49.0990 11.9976 -65.6476 -0.0001 -0.0001 -109.8712 -13.8839 -8.7805 -3.8623 0.0000 0.0000 -0.0000 -0.0000 -0.0000 0.0000 -12.3794 15.4982 -10.2023 54.9601 0.0000 0.0000 -12.9481 -8.0789 -14.5880 -4.6170 0.0000 -0.0000 0.0302 4.7283 1.4756 16.2315 0.0000 0.0000 -8.3331 5.1352 3.3056 -2.6677 0.0000 -0.0000
 21.4979 -20.4867 37.7191 -0.9389 -8.5659 33.3636 -3.2141 2.9826 -0.2223 -1.3654 -0.3387 -0.0597 1.4115 2.4380 3.0035 2.6167 1.5648 -1.5158 13.4177 18.2634 28.0817 -2.7837 7.2291 45.0070 10.3453 4.4891 6.0604 29.2608 -15.7045 70.8874 -0.0001 0.0001 122.7442 -14.4471 10.2142 -8.5566 -0.0000 -0.0000 0.0000 0.0000 0.0000 -0.0000 4.4023 2.5656 -20.1392 49.1053 12.1863 -65.6834 -0.0001 -0.0001 -109.8553 -14.1492 -8.6644 -4.0526 0.0000 -0.0000 -0.0000 0.0000 -0.0000 0.0000 -12.7504 15.4919 -10.4094 53.3923 0.0000 0.0000 -13.5709 -7.5614 -14.9997 -4.7683 0.0000 -0.0000 0.4961 4.7277 1.5685 15.9365 0.0000 0.0000 -8.4668 5.1811 3.3152 -2.7017 0.0000 -0.0000
 21.5794 -20.6483 37.7171 -0.9228 -8.5877 33.3159 -3.1674 3.1305 -0.2478 -1.3460 -0.3225 -0.0607 1.4237 2.3832 2.9693 2.6245 1.5601 -1.5097 13.2979 18.2460 28.1037 -2.8710 7.2105 45.0629 10.3705 4.5710 5.9921 29.2829 -15.8436 70.9714 -0.0001 0.0001 122.7609 -14.2959 10.2116 -8.5601 0.0000 -0.0000 -0.0000 0.0000 -0.0000 -0.0000 4.4532 2.4799 -20.2021 49.1097 12.3767 -65.7066 -0.0001 -0.0001 -109.8501 -14.3856 -8.5603 -4.2245 -0.0000 0.0000 0.0000 -0.0000 0.0000 0.0000 -13.0837 15.4498 -10.5917 51.6883 0.0000 0.0000 -14.1389 -7.1421 -15.1890 -4.9124 0.0000 -0.0000 0.9361 4.7225 1.6237 15.6703 0.0000 0.0000 -8.6264 5.2474 3.3599 -2.7529 0.0000 -0.0000
 21.6569 -20.8105 37.7125 -0.9029 -8.6034 33.2717 -3.1252 3.2704 -0.2708 -1.3289 -0.3012 -0.0602 1.4431 2.3273 2.9389 2.6353 1.5519 -1.4983 13.1870 18.2289 28.1139 -2.9489 7.1970 45.1051 10.3934 4.6396 5.9175 29.3000 -15.9559 71.0569 -0.0001 0.0001 122.7773 -14.1451 10.2160 -8.5646 -0.0000 0.0000 0.0000 -0.0000 0.0000 0.0000 4.5096 2.4077 -20.2617 49.1124 12.5568 -65.7143 -0.0001 -0.0001 -109.8535 -14.5884 -8.4718 -4.3748 -0.0000 -0.0000 0.0000 -0.0000 0.0000 -0.0000 -13.3839 15.3755 -10.7683 49.8531 0.0000 0.0000 -14.6236 -6.8066 -15.1495 -5.1031 0.0000 -0.0000 1.3467 4.7132 1.6279 15.4306 0.0000 0.0000 -8.8075 5.3273 3.4441 -2.8160 0.0000 -0.0000
 21.7305 -20.9741 37.7061 -0.8878 -8.6094 33.2345 -3.0852 3.3977 -0.2892 -1.3136 -0.2812 -0.0622 1.4730 2.2741 2.9110 2.6491 1.5413 -1.4827 13.0864 18.2126 28.1133 -3.0207 7.1885 45.1315 10.4125 4.6858 5.8399 29.3131 -16.0351 71.1372 -0.0001 0.0001 122.7899 -14.0050 10.2200 -8.5711 0.0000 0.0000 0.0000 0.0000 0.0000 -0.0000 4.5699 2.3559 -20.3191 49.1123 12.7164 -65.7016 -0.0001 -0.0001 -109.8647 -14.7538 -8.4018 -4.4991 0.0000 -0.0000 0.0000 -0.0000 -0.0000 0.0000 -13.6423 15.2647 -10.9594 47.8889 0.0000 0.0000 -14.9843 -6.5405 -14.8820 -5.3712 0.0000 -0.0000 1.7334 4.6917 1.5789 15.2183 0.0000 0.0000 -9.0066 5.4130 3.5635 -2.8826 0.0000 -0.0000
